<?xml version="1.0" encoding="utf-8"?>
<!-- Generator: Adobe Illustrator 19.0.0, SVG Export Plug-In . SVG Version: 6.00 Build 0)  -->
<svg version="1.1" id="Layer_1" xmlns="http://www.w3.org/2000/svg" xmlns:xlink="http://www.w3.org/1999/xlink" x="0px" y="0px"
	 viewBox="0 0 1400 980" style="enable-background:new 0 0 1400 980;" xml:space="preserve">
<style type="text/css">
	.st0{fill:#ED2024;}
	.st1{fill:#3A1313;}
	.st2{fill:url(#XMLID_3_);}
	.st3{fill:#F9DA85;}
	.st4{fill:#231F20;stroke:#231F20;}
	.st5{fill:#FFFFFF;}
</style>
<g id="XMLID_1_">
	<path id="XMLID_24_" class="st0" d="M702.5,792.6c-132.7,0-236.1-21.2-307.4-63c-79.4-46.6-119.6-118.9-119.6-215.1
		c0-110.9,46-223.2,126.3-308c39.7-41.9,85.2-75,135.5-98.3c52.7-24.5,107.9-36.9,164-36.9c113.1,0,219.7,47.6,300.1,134
		c38.6,41.5,68.9,89.5,90.2,142.8c21.9,54.8,33,112.5,33,171.5c0,92.6-38.6,162.9-114.7,208.8C939.1,771,835.7,792.6,702.5,792.6z"
		/>
	<path id="XMLID_21_" class="st1" d="M701.3,76.5c232.8,0,418,205.3,418,443.1c0,187.7-160.2,267.8-416.8,267.8
		c-250.2,0-421.8-75.1-421.8-272.8C280.7,286.8,473.5,76.5,701.3,76.5 M701.3,66.1c-56.9,0-112.8,12.6-166.2,37.4
		c-50.8,23.6-97,57.1-137.1,99.5c-39.7,42-71.1,90.1-93.2,143c-22.9,54.7-34.5,111.5-34.5,168.6c0,98.1,41.1,172,122.2,219.6
		c72.1,42.3,176.4,63.7,310,63.7c134.2,0,238.4-21.9,310-65c77.8-46.9,117.2-118.7,117.2-213.3c0-59.6-11.2-118-33.3-173.4
		c-21.5-53.9-52.2-102.4-91.2-144.4c-39.4-42.3-85.2-75.6-136.1-98.9C815.9,78.4,759.4,66.1,701.3,66.1L701.3,66.1z"/>
	<linearGradient id="XMLID_3_" gradientUnits="userSpaceOnUse" x1="219.2956" y1="651.8287" x2="1214.2158" y2="651.8287">
		<stop  offset="0" style="stop-color:#ED2224"/>
		<stop  offset="1" style="stop-color:#CC2728"/>
	</linearGradient>
	<path id="XMLID_20_" class="st2" d="M703.2,789.9c226.8,0,378.2-62.6,410.4-206.7c-24.2,38-50.8,56.3-72.6,64.9
		c-76.1-55.6-200.2-91.8-340.3-91.8c-140.7,0-265.1,36.5-341.2,92.4c-27.6-22.2-57-62.4-78.1-134.9c0,1.1,0,2.2,0,3.3
		C281.4,714.8,452.9,789.9,703.2,789.9z"/>
	<g id="XMLID_15_">
		<path id="XMLID_19_" class="st3" d="M675.7,908.7c-22.6,0-57.1-1.9-92.7-11.2c-42.8-11.1-76.7-29.9-100.7-55.9
			c-32.3-35-46.2-82.5-41.5-141.4c0.1-1.2,0.6-2.3,1.4-3.2c1.1-1.1,27.2-28.2,72.8-50.4c40.1-19.6,104.8-42.9,185.2-42.9
			c55.6,0,110.7,11.3,163.7,33.7c2.8,1.2,5.7,2.4,8.7,3.6c31.5,13.1,70.8,29.5,88.4,56.7c0.3,0.5,0.5,1,0.7,1.6
			c0.7,3,17.5,73.9-28.9,133c-39.3,50.2-111.3,75.6-214,75.6c-5.7,0-11.5-0.1-17.3-0.2C699.5,907.9,690.1,908.7,675.7,908.7z"/>
		<path id="XMLID_16_" class="st1" d="M700.1,608.9c49.7,0,104.4,9.1,161.7,33.3c32.3,13.6,76.4,30,94.8,58.4
			c0,0,49.7,202.2-237.8,202.2c-5.7,0-11.5-0.1-17.5-0.2c0,0-9.8,1-25.6,1c-67.6,0-244.6-17.5-229.7-202.9c0,0,26.1-27.3,71.3-49.4
			C561.1,629.9,624.9,608.9,700.1,608.9 M700.1,598.5c-81.4,0-146.9,23.6-187.5,43.4c-46.4,22.6-73.1,50.4-74.3,51.5
			c-1.7,1.7-2.7,4-2.9,6.4c-4.8,60.4,9.6,109.3,42.9,145.3c24.7,26.8,59.4,46.1,103.2,57.4c36.2,9.4,71.1,11.4,94,11.4
			c13.9,0,23.4-0.7,25.9-0.9c5.8,0.2,11.6,0.2,17.2,0.2c104.4,0,177.7-26.1,218.1-77.6c47.9-61.1,30.6-134.4,29.8-137.4
			c-0.3-1.1-0.7-2.2-1.4-3.2c-18.5-28.6-58.6-45.3-90.8-58.7c-2.9-1.2-5.8-2.4-8.6-3.6C812.2,610,756.5,598.5,700.1,598.5
			L700.1,598.5z"/>
	</g>
	<path id="XMLID_14_" class="st4" d="M634.3,725.8c0,37.3-3.6,65.3-19.3,65.3c-15.7,0-19.3-28-19.3-65.3c0-37.3,3.6-60.8,19.3-60.8
		C630.7,665.1,634.3,688.5,634.3,725.8z"/>
	<path id="XMLID_13_" class="st4" d="M810.1,725.8c0,37.3-3.6,65.3-19.3,65.3c-15.7,0-19.3-28-19.3-65.3c0-37.3,3.6-60.8,19.3-60.8
		C806.4,665.1,810.1,688.5,810.1,725.8z"/>
	<path id="XMLID_12_" class="st5" d="M613.9,668.6c-11.8,0-15.7,15.1-16.6,40.1c4.7,3.4,10.4,5.4,16.6,5.4c6.2,0,11.9-2,16.6-5.4
		C629.7,683.7,625.7,668.6,613.9,668.6z"/>
	<path id="XMLID_11_" class="st5" d="M789.7,668.6c-12.1,0-16,16-16.7,42.2c4.7,3.4,10.4,5.4,16.7,5.4c6.2,0,12-2,16.7-5.4
		C805.7,684.6,801.8,668.6,789.7,668.6z"/>
	<path id="XMLID_10_" class="st5" d="M356.7,271.3c-47.7,71.3-76,156-76,243.2c0,24.9,2.7,47.9,8,69
		C338.2,531.3,409.1,423.9,356.7,271.3z"/>
	<path id="XMLID_9_" class="st5" d="M1040.6,263c-12,84.1-22.6,254.1,71.1,322.8c5-20.4,7.6-42.4,7.6-66.2
		C1119.3,425.3,1090.2,336.2,1040.6,263z"/>
	<circle id="XMLID_8_" class="st5" cx="701.3" cy="296.8" r="205.3"/>
	<path id="XMLID_4_" class="st4" d="M770.4,647.1c-35.5,18.1-68.8,23.2-68.8,23.2s-33.3-5.2-68.8-23.2c-35.5-18.1-182.3-7.7-210.4,6
		v31.8c0,0,18.2,0.9,23.1,27.5c4.9,26.7,3.3,119.5,99,119.5c95.7,0,122.1-65.3,127-84.3c4.9-18.9,11.3-49,30-49
		c18.7,0,25,30.1,30,49c4.9,18.9,31.3,84.3,127,84.3c95.7,0,94-92.9,99-119.5c5-26.7,23.1-27.5,23.1-27.5v-31.8
		C952.7,639.4,805.9,629,770.4,647.1z M593.3,810.4c-57.8,23.3-86.6-2.6-108.9-21.5c-22.3-18.9-26.4-94.6-9.1-113.5
		c0,0,18.1-21.5,85.8-21.5s95.7,23.2,96.5,55.9C658.5,742.5,651.1,787.1,593.3,810.4z M918.9,789c-22.3,18.9-51.1,44.8-108.9,21.5
		c-57.8-23.3-65.2-67.9-64.3-100.6c0.8-32.7,28.8-55.9,96.5-55.9c67.7,0,85.8,21.5,85.8,21.5C945.3,694.4,941.2,770,918.9,789z"/>
</g>
</svg>
