<?xml version="1.0" encoding="utf-8"?>
<!-- Generator: Adobe Illustrator 19.0.0, SVG Export Plug-In . SVG Version: 6.00 Build 0)  -->
<svg version="1.1" id="Layer_1" xmlns="http://www.w3.org/2000/svg" xmlns:xlink="http://www.w3.org/1999/xlink" x="0px" y="0px"
	 viewBox="0 0 1400 980" style="enable-background:new 0 0 1400 980;" xml:space="preserve">
<style type="text/css">
	.st0{fill:#FE0100;}
	.st1{fill:#3F0406;}
	.st2{fill:url(#XMLID_27_);}
	.st3{fill:#FADA85;}
	.st4{fill:#231F20;stroke:#231F20;}
	.st5{fill:#FFFFFF;}
	.st6{fill:#D1D2D4;}
	.st7{fill:#C4C4C4;}
	.st8{fill-rule:evenodd;clip-rule:evenodd;fill:#FFFFFF;}
	.st9{fill:none;}
</style>
<g id="XMLID_2_">
	<g id="XMLID_1_">
		<path id="XMLID_24_" class="st0" d="M701.9,576.2c-98.6,0-175.5-15.8-228.5-46.8c-59-34.6-88.9-88.4-88.9-159.9
			c0-82.5,34.2-165.9,93.9-229c29.5-31.2,63.4-55.8,100.7-73.1C618.2,49.2,659.2,40,700.9,40C785,40,864.2,75.4,924,139.6
			c28.7,30.8,51.2,66.5,67,106.1c16.3,40.8,24.5,83.7,24.5,127.5c0,68.9-28.7,121.1-85.3,155.2C877.7,560.1,800.9,576.2,701.9,576.2
			z"/>
		<path class="st1" d="M700.9,43.9c173,0,310.7,152.6,310.7,329.3c0,139.5-119.1,199.1-309.8,199.1c-186,0-313.5-55.8-313.5-202.8
			C388.3,200.2,531.6,43.9,700.9,43.9 M700.9,36.1c-42.3,0-83.8,9.3-123.5,27.8c-37.8,17.6-72.1,42.4-101.9,73.9
			c-29.5,31.2-52.8,67-69.3,106.3c-17,40.7-25.6,82.8-25.6,125.3c0,73,30.6,127.9,90.8,163.2c53.6,31.4,131.1,47.3,230.4,47.3
			c99.7,0,177.2-16.3,230.4-48.3c57.8-34.9,87.1-88.2,87.1-158.5c0-44.3-8.3-87.7-24.8-128.9c-16-40-38.8-76.1-67.8-107.3
			c-29.3-31.5-63.3-56.2-101.1-73.5C786.2,45.3,744.2,36.1,700.9,36.1L700.9,36.1z"/>
		<linearGradient id="XMLID_27_" gradientUnits="userSpaceOnUse" x1="342.6895" y1="471.5377" x2="1082.2197" y2="471.5377">
			<stop  offset="0" style="stop-color:#FF0000"/>
			<stop  offset="1" style="stop-color:#CC2727"/>
		</linearGradient>
		<path id="XMLID_21_" class="st2" d="M702.3,574.2c168.6,0,281.1-46.5,305-153.7c-18,28.3-37.7,41.9-53.9,48.2
			c-56.6-41.3-148.8-68.2-252.9-68.2c-104.5,0-197.1,27.1-253.6,68.7c-20.5-16.5-42.4-46.4-58-100.3c0,0.8,0,1.6,0,2.5
			C388.8,518.3,516.4,574.2,702.3,574.2z"/>
		<g>
			<path id="XMLID_20_" class="st3" d="M681.9,662.5c-16.8,0-42.4-1.4-68.9-8.3c-31.8-8.3-57-22.2-74.8-41.6
				c-24-26-34.4-61.3-30.9-105.1c0.1-0.9,0.4-1.7,1.1-2.4c0.8-0.8,20.2-21,54.1-37.5c29.8-14.5,77.9-31.9,137.7-31.9
				c41.3,0,82.3,8.4,121.7,25.1c2.1,0.9,4.2,1.8,6.4,2.7c23.4,9.8,52.6,21.9,65.7,42.2c0.2,0.4,0.4,0.8,0.5,1.2
				c0.5,2.2,13,54.9-21.4,98.8c-29.2,37.3-82.8,56.2-159.1,56.2c-4.2,0-8.5-0.1-12.9-0.2C699.7,661.9,692.6,662.5,681.9,662.5z"/>
			<path class="st1" d="M700.1,439.6c37,0,77.6,6.8,120.2,24.8c24,10.1,56.8,22.3,70.4,43.4c0,0,37,150.3-176.8,150.3
				c-4.2,0-8.6-0.1-13-0.2c0,0-7.3,0.7-19,0.7c-50.2,0-181.8-13-170.8-150.8c0,0,19.4-20.3,53-36.7
				C596.8,455.2,644.2,439.6,700.1,439.6 M700.1,431.9c-60.5,0-109.2,17.5-139.4,32.3c-34.5,16.8-54.4,37.4-55.2,38.3
				c-1.2,1.3-2,3-2.1,4.7c-3.6,44.9,7.1,81.2,31.9,108c18.4,19.9,44.2,34.3,76.7,42.7c26.9,7,52.8,8.4,69.9,8.4
				c10.4,0,17.4-0.5,19.3-0.7c4.3,0.1,8.6,0.2,12.8,0.2c77.6,0,132.1-19.4,162.1-57.7c35.6-45.4,22.7-99.9,22.2-102.2
				c-0.2-0.8-0.6-1.6-1-2.4c-13.8-21.3-43.6-33.7-67.5-43.6c-2.2-0.9-4.3-1.8-6.4-2.7C783.4,440.4,742,431.9,700.1,431.9
				L700.1,431.9z"/>
		</g>
		<path id="XMLID_17_" class="st4" d="M651.2,526.5c0,27.7-2.7,48.6-14.4,48.6c-11.7,0-14.4-20.8-14.4-48.6
			c0-27.7,2.7-45.2,14.4-45.2C648.5,481.4,651.2,498.8,651.2,526.5z"/>
		<path id="XMLID_16_" class="st4" d="M781.8,526.5c0,27.7-2.7,48.6-14.4,48.6c-11.7,0-14.4-20.8-14.4-48.6
			c0-27.7,2.7-45.2,14.4-45.2C779.1,481.4,781.8,498.8,781.8,526.5z"/>
		<path id="XMLID_15_" class="st5" d="M636,484c-8.7,0-11.7,11.3-12.3,29.8c3.5,2.5,7.7,4,12.3,4s8.9-1.5,12.3-4
			C647.7,495.3,644.8,484,636,484z"/>
		<path id="XMLID_14_" class="st5" d="M766.7,484c-9,0-11.9,11.9-12.4,31.4c3.5,2.5,7.8,4,12.4,4c4.6,0,8.9-1.5,12.4-4
			C778.6,495.9,775.7,484,766.7,484z"/>
		<path id="XMLID_13_" class="st5" d="M444.9,188.7c-35.5,53-56.5,115.9-56.5,180.8c0,18.5,2,35.6,5.9,51.3
			C431.1,382,483.8,302.1,444.9,188.7z"/>
		<path id="XMLID_12_" class="st5" d="M953.1,182.5c-8.9,62.5-16.8,188.9,52.9,239.9c3.7-15.1,5.6-31.5,5.6-49.2
			C1011.7,303.2,990,236.9,953.1,182.5z"/>
		<circle id="XMLID_11_" class="st5" cx="700.9" cy="207.6" r="152.6"/>
		<path class="st4" d="M752.3,468c-26.4,13.4-51.1,17.3-51.1,17.3s-24.7-3.8-51.1-17.3c-26.4-13.4-135.5-5.8-156.4,4.5v23.6
			c0,0,13.5,0.6,17.2,20.5c3.7,19.8,2.5,88.8,73.6,88.8c71.1,0,90.8-48.6,94.4-62.6c3.7-14.1,8.4-36.4,22.3-36.4
			c13.9,0,18.6,22.4,22.3,36.4c3.7,14.1,23.3,62.6,94.4,62.6c71.1,0,69.9-69,73.6-88.8c3.7-19.8,17.2-20.5,17.2-20.5v-23.6
			C887.9,462.3,778.7,454.6,752.3,468z M620.7,589.4c-42.9,17.3-64.4-1.9-80.9-16c-16.6-14.1-19.6-70.3-6.7-84.4
			c0,0,13.5-16,63.8-16s71.1,17.3,71.7,41.5C669.1,539,663.6,572.1,620.7,589.4z M862.7,573.5c-16.6,14.1-38,33.3-80.9,16
			c-43-17.3-48.4-50.5-47.8-74.8c0.6-24.3,21.4-41.5,71.7-41.5c50.3,0,63.8,16,63.8,16C882.3,503.2,879.3,559.4,862.7,573.5z"/>
	</g>
	<path id="XMLID_7_" class="st6" d="M977.4,924.4H428.1c-2.7,0-4.9-2.2-4.9-4.9V595.8c0-2.7,2.2-4.9,4.9-4.9h549.3
		c2.7,0,4.9,2.2,4.9,4.9v323.7C982.3,922.2,980.1,924.4,977.4,924.4z"/>
	<path id="XMLID_3_" class="st7" d="M977.4,943.9H428.1c-2.7,0-4.9-2.2-4.9-4.9v-9.6c0-2.7,2.2-4.9,4.9-4.9h549.3
		c2.7,0,4.9,2.2,4.9,4.9v9.6C982.3,941.7,980.1,943.9,977.4,943.9z"/>
	<g id="XMLID_25_">
		<path id="XMLID_6_" class="st8" d="M701.5,736.1c-0.3-2,0-4,0.6-5.5c0.6-1.5,1.5-2.8,2.5-3.9c1.7-1.9,3.9-3.6,7-4.2
			c0.2,0,0.5-0.1,0.7-0.1c0.3,0,0.5-0.1,0.8-0.1c0.1,0,0.1,0,0.1,0.1c0.1,0.4,0.1,0.9,0.1,1.3c0,3.6-1.4,6.2-3.1,8.1
			c-1,1.1-2.2,2.2-3.5,2.9C705.2,735.6,703.7,736.1,701.5,736.1z"/>
		<path id="XMLID_5_" class="st8" d="M724.7,741c-1.8,1.3-3.4,2.7-4.6,4.6c-1.2,1.9-2,4.3-1.8,7.4c0.2,2.8,1.3,4.9,2.7,6.6
			c1.4,1.7,3.2,3,5.2,4c0,0,0,0,0,0c-1.4,3.9-3.3,7.3-5.7,10.2c-1.2,1.4-2.5,2.8-4.1,3.8c-0.8,0.5-1.7,1-2.8,1.2
			c-1.2,0.2-2.4-0.1-3.4-0.4c-1.1-0.3-2-0.7-2.9-1c-1-0.4-1.9-0.7-3.1-0.8c-1.3-0.1-2.5,0-3.6,0.2c-1.1,0.2-2.1,0.6-3,1
			c-1.4,0.6-2.8,1.2-4.8,1.1c-1.8-0.1-3.2-0.8-4.3-1.7c-2.3-1.7-3.9-4-5.4-6.5c-2-3.3-3.7-6.9-4.7-11.3c-0.5-2.2-0.8-4.5-0.8-7.1
			c0-5.2,1.6-9.1,4-11.9c2.3-2.7,5.4-4.6,9.9-5c2.1-0.2,4.1,0.1,5.7,0.6c1.3,0.4,2.5,1.1,3.8,1.5c0.8,0.2,1.6,0.3,2.3,0.1
			c0.8-0.1,1.4-0.4,2.1-0.6c1.4-0.5,2.6-1,4-1.3c1.4-0.3,3.2-0.5,4.9-0.3c4.7,0.4,7.8,2.4,10.2,5.2
			C724.5,740.7,724.7,740.9,724.7,741z"/>
	</g>
	<path id="XMLID_4_" class="st9" d="M961.4,599.5c0,5.4,3.2,9.8,7.1,9.8"/>
</g>
</svg>
